<mxfile host="app.diagrams.net" modified="2024-02-14T23:52:00.780Z" agent="Mozilla/5.0 (Macintosh; Intel Mac OS X 10_15_7) AppleWebKit/537.36 (KHTML, like Gecko) Chrome/120.0.0.0 Safari/537.36" etag="rbnAkV2ff-U8v6TjcpkX" version="23.1.4" type="github">
  <diagram name="Page-1" id="c7558073-3199-34d8-9f00-42111426c3f3">
    <mxGraphModel dx="1730" dy="1080" grid="1" gridSize="10" guides="1" tooltips="1" connect="1" arrows="1" fold="1" page="1" pageScale="1" pageWidth="1169" pageHeight="827" background="none" math="0" shadow="0">
      <root>
        <mxCell id="0" />
        <mxCell id="1" parent="0" />
        <mxCell id="LkIIAw-uAGg6XenNthky-164" value="&lt;p style=&quot;margin: 0px; margin-top: 4px; text-align: center; text-decoration: underline;&quot;&gt;&lt;/p&gt;&lt;span style=&quot;background-color: initial;&quot;&gt;&lt;div style=&quot;&quot;&gt;&lt;span style=&quot;background-color: initial;&quot;&gt;Key&lt;/span&gt;&lt;/div&gt;&lt;/span&gt;" style="verticalAlign=middle;align=center;overflow=fill;fontSize=12;fontFamily=Helvetica;html=1;rounded=1;fontStyle=1;strokeWidth=1;fillColor=none;dashed=1;" vertex="1" parent="1">
          <mxGeometry x="950" y="10" width="130" height="199" as="geometry" />
        </mxCell>
        <mxCell id="LkIIAw-uAGg6XenNthky-166" style="edgeStyle=orthogonalEdgeStyle;rounded=0;orthogonalLoop=1;jettySize=auto;html=1;exitX=0.75;exitY=1;exitDx=0;exitDy=0;entryX=0.5;entryY=1;entryDx=0;entryDy=0;" edge="1" parent="1" source="LkIIAw-uAGg6XenNthky-96" target="LkIIAw-uAGg6XenNthky-140">
          <mxGeometry relative="1" as="geometry" />
        </mxCell>
        <mxCell id="LkIIAw-uAGg6XenNthky-167" value="&lt;font style=&quot;font-size: 14px;&quot;&gt;&lt;b&gt;Charge&lt;/b&gt;&lt;/font&gt;" style="edgeLabel;html=1;align=center;verticalAlign=middle;resizable=0;points=[];" vertex="1" connectable="0" parent="LkIIAw-uAGg6XenNthky-166">
          <mxGeometry x="-0.5116" y="2" relative="1" as="geometry">
            <mxPoint as="offset" />
          </mxGeometry>
        </mxCell>
        <mxCell id="LkIIAw-uAGg6XenNthky-96" value="Wireless&#xa;Charger RX" style="whiteSpace=wrap;align=center;verticalAlign=middle;fontStyle=1;strokeWidth=3;fillColor=#FF8000;" vertex="1" parent="1">
          <mxGeometry x="70" y="596" width="90" height="60" as="geometry" />
        </mxCell>
        <mxCell id="LkIIAw-uAGg6XenNthky-97" value="&lt;p style=&quot;margin: 0px; margin-top: 4px; text-align: center; text-decoration: underline;&quot;&gt;&lt;strong&gt;Main Application&lt;br&gt;&lt;/strong&gt;&lt;/p&gt;&lt;hr&gt;&lt;p style=&quot;text-align: left; margin: 0px 0px 0px 8px;&quot;&gt;&lt;span style=&quot;background-color: initial;&quot;&gt;&lt;u&gt;System State Machine&lt;/u&gt;&lt;/span&gt;&lt;/p&gt;&lt;p style=&quot;margin: 0px; margin-left: 8px;&quot;&gt;&lt;/p&gt;&lt;ul&gt;&lt;li style=&quot;text-align: left;&quot;&gt;&lt;span style=&quot;background-color: initial;&quot;&gt;Charging&lt;/span&gt;&lt;/li&gt;&lt;li style=&quot;text-align: left;&quot;&gt;&lt;span style=&quot;background-color: initial;&quot;&gt;Charged&lt;/span&gt;&lt;/li&gt;&lt;li style=&quot;text-align: left;&quot;&gt;&lt;span style=&quot;background-color: initial;&quot;&gt;Pairing&lt;/span&gt;&lt;/li&gt;&lt;/ul&gt;&lt;p&gt;&lt;/p&gt;&lt;p style=&quot;margin: 0px; margin-left: 8px;&quot;&gt;&lt;span style=&quot;background-color: initial;&quot;&gt;&lt;br&gt;&lt;/span&gt;&lt;/p&gt;&lt;p style=&quot;text-align: left; margin: 0px 0px 0px 8px;&quot;&gt;&lt;span style=&quot;background-color: initial;&quot;&gt;&lt;u&gt;System Events&lt;/u&gt;&lt;/span&gt;&lt;/p&gt;&lt;p style=&quot;margin: 0px; margin-left: 8px;&quot;&gt;&lt;/p&gt;&lt;ul&gt;&lt;li style=&quot;text-align: left;&quot;&gt;&lt;span style=&quot;background-color: initial;&quot;&gt;Authenticated&lt;/span&gt;&lt;/li&gt;&lt;li style=&quot;text-align: left;&quot;&gt;&lt;span style=&quot;background-color: initial;&quot;&gt;Connected&lt;/span&gt;&lt;/li&gt;&lt;li style=&quot;text-align: left;&quot;&gt;&lt;span style=&quot;background-color: initial;&quot;&gt;Low Battery&lt;/span&gt;&lt;/li&gt;&lt;li style=&quot;text-align: left;&quot;&gt;&lt;span style=&quot;background-color: initial;&quot;&gt;New Message&lt;/span&gt;&lt;/li&gt;&lt;li style=&quot;text-align: left;&quot;&gt;Power Down&lt;/li&gt;&lt;li style=&quot;text-align: left;&quot;&gt;Button Pressed&lt;/li&gt;&lt;li style=&quot;text-align: left;&quot;&gt;Button Released&lt;/li&gt;&lt;/ul&gt;&lt;p&gt;&lt;/p&gt;&lt;p style=&quot;margin: 0px; margin-left: 8px;&quot;&gt;&lt;span style=&quot;background-color: initial;&quot;&gt;&lt;br&gt;&lt;/span&gt;&lt;/p&gt;&lt;p style=&quot;margin: 0px; margin-left: 8px;&quot;&gt;&lt;span style=&quot;background-color: initial;&quot;&gt;&lt;br&gt;&lt;/span&gt;&lt;/p&gt;&lt;p style=&quot;margin: 0px; margin-left: 8px;&quot;&gt;&lt;span style=&quot;background-color: initial;&quot;&gt;&lt;br&gt;&lt;/span&gt;&lt;/p&gt;" style="verticalAlign=middle;align=center;overflow=fill;fontSize=12;fontFamily=Helvetica;html=1;rounded=1;fontStyle=1;strokeWidth=3;fillColor=#5cb0f0;" vertex="1" parent="1">
          <mxGeometry x="300" y="321" width="170" height="275" as="geometry" />
        </mxCell>
        <mxCell id="LkIIAw-uAGg6XenNthky-99" value="&lt;p style=&quot;margin: 0px; margin-top: 4px; text-align: center; text-decoration: underline;&quot;&gt;&lt;strong&gt;Battery Manager&lt;br&gt;&lt;/strong&gt;&lt;/p&gt;&lt;hr style=&quot;text-align: left;&quot;&gt;&lt;ul style=&quot;border-color: var(--border-color);&quot;&gt;&lt;li style=&quot;text-align: left;&quot;&gt;&lt;span style=&quot;background-color: initial;&quot;&gt;Charge Status&lt;/span&gt;&lt;/li&gt;&lt;li style=&quot;border-color: var(--border-color); text-align: left;&quot;&gt;Charge Current&lt;/li&gt;&lt;li style=&quot;border-color: var(--border-color); text-align: left;&quot;&gt;Charge Level&lt;/li&gt;&lt;li style=&quot;border-color: var(--border-color); text-align: left;&quot;&gt;Voltage&lt;/li&gt;&lt;li style=&quot;border-color: var(--border-color); text-align: left;&quot;&gt;Temperature&lt;/li&gt;&lt;/ul&gt;" style="verticalAlign=middle;align=center;overflow=fill;fontSize=12;fontFamily=Helvetica;html=1;rounded=1;fontStyle=1;strokeWidth=3;fillColor=#5cb0f0;" vertex="1" parent="1">
          <mxGeometry x="30" y="344" width="170" height="140" as="geometry" />
        </mxCell>
        <mxCell id="LkIIAw-uAGg6XenNthky-101" value="" style="endArrow=classic;startArrow=classic;html=1;rounded=0;entryX=0.5;entryY=1;entryDx=0;entryDy=0;exitX=0.5;exitY=0;exitDx=0;exitDy=0;endSize=8;startSize=8;jumpSize=8;" edge="1" parent="1" source="LkIIAw-uAGg6XenNthky-96" target="LkIIAw-uAGg6XenNthky-99">
          <mxGeometry width="50" height="50" relative="1" as="geometry">
            <mxPoint x="390" y="661" as="sourcePoint" />
            <mxPoint x="440" y="611" as="targetPoint" />
          </mxGeometry>
        </mxCell>
        <mxCell id="LkIIAw-uAGg6XenNthky-102" value="&lt;b&gt;&lt;font style=&quot;font-size: 14px;&quot;&gt;I2C&lt;/font&gt;&lt;/b&gt;" style="edgeLabel;html=1;align=center;verticalAlign=middle;resizable=0;points=[];" vertex="1" connectable="0" parent="LkIIAw-uAGg6XenNthky-101">
          <mxGeometry x="-0.156" relative="1" as="geometry">
            <mxPoint as="offset" />
          </mxGeometry>
        </mxCell>
        <mxCell id="LkIIAw-uAGg6XenNthky-103" value="" style="shape=flexArrow;endArrow=classic;startArrow=classic;html=1;rounded=0;exitX=1;exitY=0.5;exitDx=0;exitDy=0;entryX=0;entryY=0.342;entryDx=0;entryDy=0;entryPerimeter=0;" edge="1" parent="1" source="LkIIAw-uAGg6XenNthky-99" target="LkIIAw-uAGg6XenNthky-97">
          <mxGeometry width="100" height="100" relative="1" as="geometry">
            <mxPoint x="230" y="611" as="sourcePoint" />
            <mxPoint x="270" y="611" as="targetPoint" />
          </mxGeometry>
        </mxCell>
        <mxCell id="LkIIAw-uAGg6XenNthky-104" value="&lt;b&gt;&lt;font style=&quot;font-size: 14px;&quot;&gt;IPC&lt;/font&gt;&lt;/b&gt;" style="edgeLabel;html=1;align=center;verticalAlign=middle;resizable=0;points=[];" vertex="1" connectable="0" parent="LkIIAw-uAGg6XenNthky-103">
          <mxGeometry x="0.0175" y="3" relative="1" as="geometry">
            <mxPoint as="offset" />
          </mxGeometry>
        </mxCell>
        <mxCell id="LkIIAw-uAGg6XenNthky-105" value="&lt;p style=&quot;margin: 0px; margin-top: 4px; text-align: center; text-decoration: underline;&quot;&gt;&lt;strong&gt;Keypad&lt;br&gt;&lt;/strong&gt;&lt;/p&gt;&lt;hr style=&quot;text-align: left;&quot;&gt;&lt;ul style=&quot;border-color: var(--border-color);&quot;&gt;&lt;li style=&quot;text-align: left;&quot;&gt;&lt;span style=&quot;background-color: initial;&quot;&gt;Character Write API&lt;/span&gt;&lt;br&gt;&lt;/li&gt;&lt;li style=&quot;text-align: left;&quot;&gt;&lt;span style=&quot;background-color: initial;&quot;&gt;Finger Tracking&lt;/span&gt;&lt;/li&gt;&lt;li style=&quot;text-align: left;&quot;&gt;&lt;span style=&quot;background-color: initial;&quot;&gt;Output Buffer API&lt;/span&gt;&lt;/li&gt;&lt;/ul&gt;" style="verticalAlign=middle;align=center;overflow=fill;fontSize=12;fontFamily=Helvetica;html=1;rounded=1;fontStyle=1;strokeWidth=3;fillColor=#5cb0f0;" vertex="1" parent="1">
          <mxGeometry x="530" y="556" width="170" height="140" as="geometry" />
        </mxCell>
        <mxCell id="LkIIAw-uAGg6XenNthky-106" value="" style="shape=flexArrow;endArrow=classic;startArrow=classic;html=1;rounded=0;exitX=0;exitY=0.5;exitDx=0;exitDy=0;entryX=0.959;entryY=0.985;entryDx=0;entryDy=0;entryPerimeter=0;" edge="1" parent="1" source="LkIIAw-uAGg6XenNthky-105" target="LkIIAw-uAGg6XenNthky-97">
          <mxGeometry width="100" height="100" relative="1" as="geometry">
            <mxPoint x="210" y="481" as="sourcePoint" />
            <mxPoint x="310" y="481" as="targetPoint" />
          </mxGeometry>
        </mxCell>
        <mxCell id="LkIIAw-uAGg6XenNthky-107" value="&lt;b&gt;&lt;font style=&quot;font-size: 14px;&quot;&gt;IPC&lt;/font&gt;&lt;/b&gt;" style="edgeLabel;html=1;align=center;verticalAlign=middle;resizable=0;points=[];" vertex="1" connectable="0" parent="LkIIAw-uAGg6XenNthky-106">
          <mxGeometry x="0.0175" y="3" relative="1" as="geometry">
            <mxPoint as="offset" />
          </mxGeometry>
        </mxCell>
        <mxCell id="LkIIAw-uAGg6XenNthky-108" value="Capacitive Touch&#xa;Controller" style="whiteSpace=wrap;align=center;verticalAlign=middle;fontStyle=1;strokeWidth=3;fillColor=#FF8000;" vertex="1" parent="1">
          <mxGeometry x="800" y="636" width="90" height="60" as="geometry" />
        </mxCell>
        <mxCell id="LkIIAw-uAGg6XenNthky-109" value="Keyboard&#xa;Hardware&#xa;Driver" style="whiteSpace=wrap;align=center;verticalAlign=middle;fontStyle=1;strokeWidth=3;fillColor=#FF8000;" vertex="1" parent="1">
          <mxGeometry x="800" y="528.5" width="90" height="60" as="geometry" />
        </mxCell>
        <mxCell id="LkIIAw-uAGg6XenNthky-110" value="" style="endArrow=classic;startArrow=classic;html=1;rounded=0;entryX=1;entryY=0.75;entryDx=0;entryDy=0;endSize=8;startSize=8;jumpSize=8;exitX=0;exitY=0.5;exitDx=0;exitDy=0;" edge="1" parent="1" source="LkIIAw-uAGg6XenNthky-108" target="LkIIAw-uAGg6XenNthky-105">
          <mxGeometry width="50" height="50" relative="1" as="geometry">
            <mxPoint x="750" y="730" as="sourcePoint" />
            <mxPoint x="125" y="551" as="targetPoint" />
          </mxGeometry>
        </mxCell>
        <mxCell id="LkIIAw-uAGg6XenNthky-111" value="&lt;b&gt;&lt;font style=&quot;font-size: 14px;&quot;&gt;I2C&lt;/font&gt;&lt;/b&gt;" style="edgeLabel;html=1;align=center;verticalAlign=middle;resizable=0;points=[];" vertex="1" connectable="0" parent="LkIIAw-uAGg6XenNthky-110">
          <mxGeometry x="-0.156" relative="1" as="geometry">
            <mxPoint as="offset" />
          </mxGeometry>
        </mxCell>
        <mxCell id="LkIIAw-uAGg6XenNthky-112" value="" style="endArrow=classic;startArrow=classic;html=1;rounded=0;entryX=1;entryY=0.25;entryDx=0;entryDy=0;exitX=0;exitY=0.5;exitDx=0;exitDy=0;endSize=8;startSize=8;jumpSize=8;" edge="1" parent="1" source="LkIIAw-uAGg6XenNthky-109" target="LkIIAw-uAGg6XenNthky-105">
          <mxGeometry width="50" height="50" relative="1" as="geometry">
            <mxPoint x="125" y="891" as="sourcePoint" />
            <mxPoint x="125" y="551" as="targetPoint" />
          </mxGeometry>
        </mxCell>
        <mxCell id="LkIIAw-uAGg6XenNthky-113" value="&lt;b&gt;&lt;font style=&quot;font-size: 14px;&quot;&gt;SPI/I2C&lt;/font&gt;&lt;/b&gt;" style="edgeLabel;html=1;align=center;verticalAlign=middle;resizable=0;points=[];" vertex="1" connectable="0" parent="LkIIAw-uAGg6XenNthky-112">
          <mxGeometry x="-0.156" relative="1" as="geometry">
            <mxPoint as="offset" />
          </mxGeometry>
        </mxCell>
        <mxCell id="LkIIAw-uAGg6XenNthky-114" value="&lt;p style=&quot;margin: 0px; margin-top: 4px; text-align: center; text-decoration: underline;&quot;&gt;&lt;strong&gt;BLE Services&lt;br&gt;&lt;/strong&gt;&lt;/p&gt;&lt;hr style=&quot;text-align: left;&quot;&gt;&lt;ul style=&quot;border-color: var(--border-color);&quot;&gt;&lt;li style=&quot;text-align: left;&quot;&gt;&lt;span style=&quot;background-color: initial;&quot;&gt;Battery Service&lt;/span&gt;&lt;br&gt;&lt;/li&gt;&lt;li style=&quot;text-align: left;&quot;&gt;&lt;span style=&quot;background-color: initial;&quot;&gt;Device Information&lt;/span&gt;&lt;/li&gt;&lt;li style=&quot;text-align: left;&quot;&gt;&lt;span style=&quot;background-color: initial;&quot;&gt;Accessibility Service&lt;/span&gt;&lt;/li&gt;&lt;li style=&quot;text-align: left;&quot;&gt;&lt;span style=&quot;background-color: initial;&quot;&gt;OTA&lt;/span&gt;&lt;/li&gt;&lt;li style=&quot;text-align: left;&quot;&gt;&lt;span style=&quot;background-color: initial;&quot;&gt;Authentication&lt;/span&gt;&lt;/li&gt;&lt;/ul&gt;" style="verticalAlign=middle;align=center;overflow=fill;fontSize=12;fontFamily=Helvetica;html=1;rounded=1;fontStyle=1;strokeWidth=3;fillColor=#5cb0f0;" vertex="1" parent="1">
          <mxGeometry x="530" y="340" width="170" height="131.5" as="geometry" />
        </mxCell>
        <mxCell id="LkIIAw-uAGg6XenNthky-116" value="" style="endArrow=classic;startArrow=classic;html=1;rounded=0;entryX=1;entryY=0.5;entryDx=0;entryDy=0;exitX=0;exitY=0.5;exitDx=0;exitDy=0;endSize=8;startSize=8;jumpSize=8;" edge="1" parent="1" source="LkIIAw-uAGg6XenNthky-115" target="LkIIAw-uAGg6XenNthky-114">
          <mxGeometry width="50" height="50" relative="1" as="geometry">
            <mxPoint x="375" y="891" as="sourcePoint" />
            <mxPoint x="338" y="831" as="targetPoint" />
          </mxGeometry>
        </mxCell>
        <mxCell id="LkIIAw-uAGg6XenNthky-117" value="&lt;b&gt;&lt;font style=&quot;font-size: 14px;&quot;&gt;TBD&lt;/font&gt;&lt;/b&gt;" style="edgeLabel;html=1;align=center;verticalAlign=middle;resizable=0;points=[];" vertex="1" connectable="0" parent="LkIIAw-uAGg6XenNthky-116">
          <mxGeometry x="-0.156" relative="1" as="geometry">
            <mxPoint as="offset" />
          </mxGeometry>
        </mxCell>
        <mxCell id="LkIIAw-uAGg6XenNthky-118" value="" style="shape=flexArrow;endArrow=classic;startArrow=classic;html=1;rounded=0;entryX=0.5;entryY=1;entryDx=0;entryDy=0;" edge="1" parent="1" target="LkIIAw-uAGg6XenNthky-114">
          <mxGeometry width="100" height="100" relative="1" as="geometry">
            <mxPoint x="615" y="560" as="sourcePoint" />
            <mxPoint x="655" y="487.5" as="targetPoint" />
          </mxGeometry>
        </mxCell>
        <mxCell id="LkIIAw-uAGg6XenNthky-119" value="&lt;b&gt;&lt;font style=&quot;font-size: 14px;&quot;&gt;IPC&lt;/font&gt;&lt;/b&gt;" style="edgeLabel;html=1;align=center;verticalAlign=middle;resizable=0;points=[];" vertex="1" connectable="0" parent="LkIIAw-uAGg6XenNthky-118">
          <mxGeometry x="0.0175" y="3" relative="1" as="geometry">
            <mxPoint as="offset" />
          </mxGeometry>
        </mxCell>
        <mxCell id="LkIIAw-uAGg6XenNthky-121" value="" style="shape=flexArrow;endArrow=classic;startArrow=classic;html=1;rounded=0;entryX=-0.018;entryY=0.365;entryDx=0;entryDy=0;exitX=1;exitY=0.25;exitDx=0;exitDy=0;entryPerimeter=0;" edge="1" parent="1" source="LkIIAw-uAGg6XenNthky-97" target="LkIIAw-uAGg6XenNthky-114">
          <mxGeometry width="100" height="100" relative="1" as="geometry">
            <mxPoint x="670" y="391" as="sourcePoint" />
            <mxPoint x="670" y="641" as="targetPoint" />
          </mxGeometry>
        </mxCell>
        <mxCell id="LkIIAw-uAGg6XenNthky-122" value="&lt;b&gt;&lt;font style=&quot;font-size: 14px;&quot;&gt;IPC&lt;/font&gt;&lt;/b&gt;" style="edgeLabel;html=1;align=center;verticalAlign=middle;resizable=0;points=[];" vertex="1" connectable="0" parent="LkIIAw-uAGg6XenNthky-121">
          <mxGeometry x="0.0175" y="3" relative="1" as="geometry">
            <mxPoint as="offset" />
          </mxGeometry>
        </mxCell>
        <mxCell id="LkIIAw-uAGg6XenNthky-123" value="&lt;p style=&quot;margin: 0px; margin-top: 4px; text-align: center; text-decoration: underline;&quot;&gt;&lt;strong&gt;Firmware Download&lt;br&gt;&lt;/strong&gt;&lt;/p&gt;&lt;hr style=&quot;text-align: left;&quot;&gt;&lt;ul style=&quot;border-color: var(--border-color);&quot;&gt;&lt;li style=&quot;text-align: left;&quot;&gt;Download Status&lt;/li&gt;&lt;li style=&quot;text-align: left;&quot;&gt;Version&lt;/li&gt;&lt;/ul&gt;" style="verticalAlign=middle;align=center;overflow=fill;fontSize=12;fontFamily=Helvetica;html=1;rounded=1;fontStyle=1;strokeWidth=3;fillColor=#5cb0f0;" vertex="1" parent="1">
          <mxGeometry x="530" y="110" width="170" height="140" as="geometry" />
        </mxCell>
        <mxCell id="LkIIAw-uAGg6XenNthky-124" value="&lt;p style=&quot;margin: 0px; margin-top: 4px; text-align: center; text-decoration: underline;&quot;&gt;&lt;strong&gt;Button&amp;nbsp;Manager&lt;br&gt;&lt;/strong&gt;&lt;/p&gt;&lt;hr style=&quot;text-align: left;&quot;&gt;&lt;ul style=&quot;border-color: var(--border-color);&quot;&gt;&lt;li style=&quot;text-align: left;&quot;&gt;Short Press&lt;/li&gt;&lt;li style=&quot;text-align: left;&quot;&gt;Long Press&lt;/li&gt;&lt;li style=&quot;text-align: left;&quot;&gt;Double Press&lt;/li&gt;&lt;/ul&gt;" style="verticalAlign=middle;align=center;overflow=fill;fontSize=12;fontFamily=Helvetica;html=1;rounded=1;fontStyle=1;strokeWidth=3;fillColor=#5cb0f0;" vertex="1" parent="1">
          <mxGeometry x="300" y="110" width="170" height="140" as="geometry" />
        </mxCell>
        <mxCell id="LkIIAw-uAGg6XenNthky-125" value="" style="shape=flexArrow;endArrow=classic;startArrow=classic;html=1;rounded=0;entryX=0.5;entryY=0;entryDx=0;entryDy=0;exitX=0.5;exitY=1;exitDx=0;exitDy=0;" edge="1" parent="1" source="LkIIAw-uAGg6XenNthky-123" target="LkIIAw-uAGg6XenNthky-114">
          <mxGeometry width="100" height="100" relative="1" as="geometry">
            <mxPoint x="590" y="575" as="sourcePoint" />
            <mxPoint x="675" y="666" as="targetPoint" />
          </mxGeometry>
        </mxCell>
        <mxCell id="LkIIAw-uAGg6XenNthky-126" value="&lt;b&gt;&lt;font style=&quot;font-size: 14px;&quot;&gt;IPC&lt;/font&gt;&lt;/b&gt;" style="edgeLabel;html=1;align=center;verticalAlign=middle;resizable=0;points=[];" vertex="1" connectable="0" parent="LkIIAw-uAGg6XenNthky-125">
          <mxGeometry x="0.0175" y="3" relative="1" as="geometry">
            <mxPoint as="offset" />
          </mxGeometry>
        </mxCell>
        <mxCell id="LkIIAw-uAGg6XenNthky-127" value="" style="shape=flexArrow;endArrow=classic;startArrow=classic;html=1;rounded=0;entryX=0;entryY=1;entryDx=0;entryDy=0;exitX=0.959;exitY=0.018;exitDx=0;exitDy=0;exitPerimeter=0;" edge="1" parent="1" source="LkIIAw-uAGg6XenNthky-97" target="LkIIAw-uAGg6XenNthky-123">
          <mxGeometry width="100" height="100" relative="1" as="geometry">
            <mxPoint x="645" y="561" as="sourcePoint" />
            <mxPoint x="645" y="691" as="targetPoint" />
          </mxGeometry>
        </mxCell>
        <mxCell id="LkIIAw-uAGg6XenNthky-128" value="&lt;b&gt;&lt;font style=&quot;font-size: 14px;&quot;&gt;IPC&lt;/font&gt;&lt;/b&gt;" style="edgeLabel;html=1;align=center;verticalAlign=middle;resizable=0;points=[];" vertex="1" connectable="0" parent="LkIIAw-uAGg6XenNthky-127">
          <mxGeometry x="0.0175" y="3" relative="1" as="geometry">
            <mxPoint as="offset" />
          </mxGeometry>
        </mxCell>
        <mxCell id="LkIIAw-uAGg6XenNthky-129" value="" style="shape=flexArrow;endArrow=classic;startArrow=classic;html=1;rounded=0;entryX=0.5;entryY=1;entryDx=0;entryDy=0;exitX=0.5;exitY=0;exitDx=0;exitDy=0;" edge="1" parent="1" source="LkIIAw-uAGg6XenNthky-97" target="LkIIAw-uAGg6XenNthky-124">
          <mxGeometry width="100" height="100" relative="1" as="geometry">
            <mxPoint x="480" y="469" as="sourcePoint" />
            <mxPoint x="560" y="468" as="targetPoint" />
          </mxGeometry>
        </mxCell>
        <mxCell id="LkIIAw-uAGg6XenNthky-130" value="&lt;b&gt;&lt;font style=&quot;font-size: 14px;&quot;&gt;IPC&lt;/font&gt;&lt;/b&gt;" style="edgeLabel;html=1;align=center;verticalAlign=middle;resizable=0;points=[];" vertex="1" connectable="0" parent="LkIIAw-uAGg6XenNthky-129">
          <mxGeometry x="0.0175" y="3" relative="1" as="geometry">
            <mxPoint as="offset" />
          </mxGeometry>
        </mxCell>
        <mxCell id="LkIIAw-uAGg6XenNthky-131" value="Button&#xa;Hardware" style="whiteSpace=wrap;align=center;verticalAlign=middle;fontStyle=1;strokeWidth=3;fillColor=#FF8000;" vertex="1" parent="1">
          <mxGeometry x="340" y="10" width="90" height="60" as="geometry" />
        </mxCell>
        <mxCell id="LkIIAw-uAGg6XenNthky-132" value="" style="endArrow=none;startArrow=classic;html=1;rounded=0;endSize=8;startSize=8;jumpSize=8;endFill=0;entryX=0.5;entryY=1;entryDx=0;entryDy=0;exitX=0.5;exitY=0;exitDx=0;exitDy=0;" edge="1" parent="1" source="LkIIAw-uAGg6XenNthky-124" target="LkIIAw-uAGg6XenNthky-131">
          <mxGeometry width="50" height="50" relative="1" as="geometry">
            <mxPoint x="125" y="810" as="sourcePoint" />
            <mxPoint x="800" y="190" as="targetPoint" />
          </mxGeometry>
        </mxCell>
        <mxCell id="LkIIAw-uAGg6XenNthky-133" value="&lt;b&gt;&lt;font style=&quot;font-size: 14px;&quot;&gt;GPIO&lt;/font&gt;&lt;/b&gt;" style="edgeLabel;html=1;align=center;verticalAlign=middle;resizable=0;points=[];" vertex="1" connectable="0" parent="LkIIAw-uAGg6XenNthky-132">
          <mxGeometry x="-0.156" relative="1" as="geometry">
            <mxPoint as="offset" />
          </mxGeometry>
        </mxCell>
        <mxCell id="LkIIAw-uAGg6XenNthky-135" value="Keyboard Keys&#xa;(X 32)" style="whiteSpace=wrap;align=center;verticalAlign=middle;fontStyle=1;strokeWidth=3;fillColor=#FF8000;" vertex="1" parent="1">
          <mxGeometry x="970" y="528.5" width="140" height="60" as="geometry" />
        </mxCell>
        <mxCell id="LkIIAw-uAGg6XenNthky-136" value="" style="endArrow=classic;startArrow=classic;html=1;rounded=0;entryX=1;entryY=0.5;entryDx=0;entryDy=0;exitX=0;exitY=0.5;exitDx=0;exitDy=0;endSize=8;startSize=8;jumpSize=8;" edge="1" parent="1" source="LkIIAw-uAGg6XenNthky-135" target="LkIIAw-uAGg6XenNthky-109">
          <mxGeometry width="50" height="50" relative="1" as="geometry">
            <mxPoint x="475" y="891" as="sourcePoint" />
            <mxPoint x="438" y="831" as="targetPoint" />
          </mxGeometry>
        </mxCell>
        <mxCell id="LkIIAw-uAGg6XenNthky-137" value="&lt;b&gt;&lt;font style=&quot;font-size: 14px;&quot;&gt;TBD&lt;/font&gt;&lt;/b&gt;" style="edgeLabel;html=1;align=center;verticalAlign=middle;resizable=0;points=[];" vertex="1" connectable="0" parent="LkIIAw-uAGg6XenNthky-136">
          <mxGeometry x="-0.156" relative="1" as="geometry">
            <mxPoint as="offset" />
          </mxGeometry>
        </mxCell>
        <mxCell id="LkIIAw-uAGg6XenNthky-140" value="" style="image;html=1;image=img/lib/clip_art/general/Battery_allstates_128x128.png" vertex="1" parent="1">
          <mxGeometry y="645" width="80" height="80" as="geometry" />
        </mxCell>
        <mxCell id="LkIIAw-uAGg6XenNthky-144" value="" style="endArrow=classic;startArrow=none;html=1;rounded=0;exitX=0.5;exitY=0;exitDx=0;exitDy=0;endFill=1;startFill=0;entryX=0.071;entryY=0.986;entryDx=0;entryDy=0;entryPerimeter=0;" edge="1" parent="1" source="LkIIAw-uAGg6XenNthky-140" target="LkIIAw-uAGg6XenNthky-99">
          <mxGeometry width="50" height="50" relative="1" as="geometry">
            <mxPoint x="390" y="940" as="sourcePoint" />
            <mxPoint x="40" y="530" as="targetPoint" />
          </mxGeometry>
        </mxCell>
        <mxCell id="LkIIAw-uAGg6XenNthky-145" value="&lt;b&gt;&lt;font style=&quot;font-size: 14px;&quot;&gt;ADC&lt;/font&gt;&lt;/b&gt;" style="edgeLabel;html=1;align=center;verticalAlign=middle;resizable=0;points=[];" vertex="1" connectable="0" parent="LkIIAw-uAGg6XenNthky-144">
          <mxGeometry x="-0.7368" y="-4" relative="1" as="geometry">
            <mxPoint x="-4" y="-58" as="offset" />
          </mxGeometry>
        </mxCell>
        <mxCell id="LkIIAw-uAGg6XenNthky-149" value="" style="verticalLabelPosition=bottom;shadow=0;dashed=0;align=center;html=1;verticalAlign=top;shape=mxgraph.electrical.radio.aerial_-_antenna_2;" vertex="1" parent="1">
          <mxGeometry x="960" y="370" width="30" height="33.5" as="geometry" />
        </mxCell>
        <mxCell id="LkIIAw-uAGg6XenNthky-150" value="" style="endArrow=none;html=1;rounded=0;entryX=0.5;entryY=1;entryDx=0;entryDy=0;entryPerimeter=0;exitX=1;exitY=0.5;exitDx=0;exitDy=0;" edge="1" parent="1" source="LkIIAw-uAGg6XenNthky-115" target="LkIIAw-uAGg6XenNthky-149">
          <mxGeometry width="50" height="50" relative="1" as="geometry">
            <mxPoint x="390" y="630" as="sourcePoint" />
            <mxPoint x="440" y="580" as="targetPoint" />
          </mxGeometry>
        </mxCell>
        <mxCell id="LkIIAw-uAGg6XenNthky-151" value="" style="group" vertex="1" connectable="0" parent="1">
          <mxGeometry x="800" y="375.75" width="90" height="60" as="geometry" />
        </mxCell>
        <mxCell id="LkIIAw-uAGg6XenNthky-115" value="BLE Radio" style="whiteSpace=wrap;align=center;verticalAlign=middle;fontStyle=1;strokeWidth=3;fillColor=#FF8000;" vertex="1" parent="LkIIAw-uAGg6XenNthky-151">
          <mxGeometry width="90" height="60" as="geometry" />
        </mxCell>
        <mxCell id="LkIIAw-uAGg6XenNthky-148" value="" style="html=1;strokeWidth=1;shadow=0;dashed=0;shape=mxgraph.ios7.misc.bluetooth;fillColor=#007AFF;strokeColor=none;buttonText=;strokeColor2=#222222;fontColor=#222222;fontSize=8;verticalLabelPosition=bottom;verticalAlign=top;align=center;sketch=0;" vertex="1" parent="LkIIAw-uAGg6XenNthky-151">
          <mxGeometry x="70" y="4" width="15" height="15" as="geometry" />
        </mxCell>
        <mxCell id="LkIIAw-uAGg6XenNthky-154" value="Haptic Motor" style="whiteSpace=wrap;align=center;verticalAlign=middle;fontStyle=1;strokeWidth=3;fillColor=#FF8000;" vertex="1" parent="1">
          <mxGeometry x="120" y="50" width="90" height="60" as="geometry" />
        </mxCell>
        <mxCell id="LkIIAw-uAGg6XenNthky-155" value="&lt;p style=&quot;margin: 0px; margin-top: 4px; text-align: center; text-decoration: underline;&quot;&gt;&lt;strong&gt;PWM Driver&lt;br&gt;&lt;/strong&gt;&lt;/p&gt;&lt;hr style=&quot;text-align: left;&quot;&gt;&lt;span style=&quot;text-align: left; background-color: initial;&quot;&gt;PWM Pulses &lt;br&gt;For Motor UI&lt;/span&gt;" style="verticalAlign=middle;align=center;overflow=fill;fontSize=12;fontFamily=Helvetica;html=1;rounded=1;fontStyle=1;strokeWidth=3;fillColor=#5cb0f0;" vertex="1" parent="1">
          <mxGeometry x="112.5" y="190" width="105" height="89" as="geometry" />
        </mxCell>
        <mxCell id="LkIIAw-uAGg6XenNthky-156" value="" style="endArrow=classic;startArrow=none;html=1;rounded=0;entryX=0.5;entryY=1;entryDx=0;entryDy=0;endSize=8;startSize=8;jumpSize=8;endFill=1;startFill=0;exitX=0.5;exitY=0;exitDx=0;exitDy=0;" edge="1" parent="1" source="LkIIAw-uAGg6XenNthky-155" target="LkIIAw-uAGg6XenNthky-154">
          <mxGeometry width="50" height="50" relative="1" as="geometry">
            <mxPoint x="380" y="180" as="sourcePoint" />
            <mxPoint x="125" y="539" as="targetPoint" />
          </mxGeometry>
        </mxCell>
        <mxCell id="LkIIAw-uAGg6XenNthky-157" value="&lt;b&gt;&lt;font style=&quot;font-size: 14px;&quot;&gt;GPIO&lt;/font&gt;&lt;/b&gt;" style="edgeLabel;html=1;align=center;verticalAlign=middle;resizable=0;points=[];" vertex="1" connectable="0" parent="LkIIAw-uAGg6XenNthky-156">
          <mxGeometry x="-0.156" relative="1" as="geometry">
            <mxPoint as="offset" />
          </mxGeometry>
        </mxCell>
        <mxCell id="LkIIAw-uAGg6XenNthky-158" value="" style="shape=flexArrow;endArrow=classic;startArrow=classic;html=1;rounded=0;entryX=1;entryY=1;entryDx=0;entryDy=0;exitX=0.047;exitY=0.022;exitDx=0;exitDy=0;exitPerimeter=0;" edge="1" parent="1" source="LkIIAw-uAGg6XenNthky-97" target="LkIIAw-uAGg6XenNthky-155">
          <mxGeometry width="100" height="100" relative="1" as="geometry">
            <mxPoint x="473" y="339" as="sourcePoint" />
            <mxPoint x="570" y="281" as="targetPoint" />
          </mxGeometry>
        </mxCell>
        <mxCell id="LkIIAw-uAGg6XenNthky-159" value="&lt;b&gt;&lt;font style=&quot;font-size: 14px;&quot;&gt;IPC&lt;/font&gt;&lt;/b&gt;" style="edgeLabel;html=1;align=center;verticalAlign=middle;resizable=0;points=[];" vertex="1" connectable="0" parent="LkIIAw-uAGg6XenNthky-158">
          <mxGeometry x="0.0175" y="3" relative="1" as="geometry">
            <mxPoint as="offset" />
          </mxGeometry>
        </mxCell>
        <mxCell id="LkIIAw-uAGg6XenNthky-161" value="&lt;p style=&quot;margin: 0px; margin-top: 4px; text-align: center; text-decoration: underline;&quot;&gt;&lt;strong&gt;Firmware&lt;br&gt;&lt;/strong&gt;&lt;/p&gt;&lt;hr style=&quot;background-color: initial; text-align: left;&quot;&gt;" style="verticalAlign=middle;align=center;overflow=fill;fontSize=12;fontFamily=Helvetica;html=1;rounded=1;fontStyle=1;strokeWidth=3;fillColor=#5cb0f0;" vertex="1" parent="1">
          <mxGeometry x="970" y="50" width="90" height="60" as="geometry" />
        </mxCell>
        <mxCell id="LkIIAw-uAGg6XenNthky-162" value="Hardware" style="whiteSpace=wrap;align=center;verticalAlign=middle;fontStyle=1;strokeWidth=3;fillColor=#FF8000;" vertex="1" parent="1">
          <mxGeometry x="970" y="120" width="90" height="60" as="geometry" />
        </mxCell>
        <mxCell id="LkIIAw-uAGg6XenNthky-169" value="&lt;font style=&quot;font-size: 14px;&quot;&gt;&lt;b&gt;Touch Zones&lt;/b&gt;&lt;/font&gt;" style="ellipse;whiteSpace=wrap;html=1;fillColor=#FF8000;dashed=1;" vertex="1" parent="1">
          <mxGeometry x="980" y="611" width="120" height="110" as="geometry" />
        </mxCell>
        <mxCell id="LkIIAw-uAGg6XenNthky-170" value="" style="endArrow=classic;startArrow=classic;html=1;rounded=0;exitX=0;exitY=0.5;exitDx=0;exitDy=0;endSize=8;startSize=8;jumpSize=8;entryX=1;entryY=0.5;entryDx=0;entryDy=0;" edge="1" parent="1" source="LkIIAw-uAGg6XenNthky-169" target="LkIIAw-uAGg6XenNthky-108">
          <mxGeometry width="50" height="50" relative="1" as="geometry">
            <mxPoint x="475" y="1050" as="sourcePoint" />
            <mxPoint x="930" y="740" as="targetPoint" />
          </mxGeometry>
        </mxCell>
        <mxCell id="LkIIAw-uAGg6XenNthky-171" value="&lt;b&gt;&lt;font style=&quot;font-size: 14px;&quot;&gt;TBD&lt;/font&gt;&lt;/b&gt;" style="edgeLabel;html=1;align=center;verticalAlign=middle;resizable=0;points=[];" vertex="1" connectable="0" parent="LkIIAw-uAGg6XenNthky-170">
          <mxGeometry x="-0.156" relative="1" as="geometry">
            <mxPoint as="offset" />
          </mxGeometry>
        </mxCell>
        <mxCell id="LkIIAw-uAGg6XenNthky-175" value="&lt;p style=&quot;margin: 0px; margin-top: 4px; text-align: center; text-decoration: underline;&quot;&gt;&lt;strong&gt;NVM Service&lt;br&gt;&lt;/strong&gt;&lt;/p&gt;&lt;hr style=&quot;text-align: left;&quot;&gt;&lt;ul style=&quot;border-color: var(--border-color);&quot;&gt;&lt;li style=&quot;text-align: left;&quot;&gt;Download Status&lt;/li&gt;&lt;li style=&quot;text-align: left;&quot;&gt;Version&lt;/li&gt;&lt;/ul&gt;" style="verticalAlign=middle;align=center;overflow=fill;fontSize=12;fontFamily=Helvetica;html=1;rounded=1;fontStyle=1;strokeWidth=3;fillColor=#5cb0f0;" vertex="1" parent="1">
          <mxGeometry x="305" y="680" width="160" height="95" as="geometry" />
        </mxCell>
        <mxCell id="LkIIAw-uAGg6XenNthky-176" value="" style="shape=flexArrow;endArrow=classic;startArrow=classic;html=1;rounded=0;exitX=0.5;exitY=0;exitDx=0;exitDy=0;" edge="1" parent="1" source="LkIIAw-uAGg6XenNthky-175" target="LkIIAw-uAGg6XenNthky-97">
          <mxGeometry width="100" height="100" relative="1" as="geometry">
            <mxPoint x="473" y="336" as="sourcePoint" />
            <mxPoint x="540" y="260" as="targetPoint" />
          </mxGeometry>
        </mxCell>
        <mxCell id="LkIIAw-uAGg6XenNthky-177" value="&lt;b&gt;&lt;font style=&quot;font-size: 14px;&quot;&gt;IPC&lt;/font&gt;&lt;/b&gt;" style="edgeLabel;html=1;align=center;verticalAlign=middle;resizable=0;points=[];" vertex="1" connectable="0" parent="LkIIAw-uAGg6XenNthky-176">
          <mxGeometry x="0.0175" y="3" relative="1" as="geometry">
            <mxPoint as="offset" />
          </mxGeometry>
        </mxCell>
        <mxCell id="LkIIAw-uAGg6XenNthky-178" value="Internal/External&#xa;Flash" style="whiteSpace=wrap;align=center;verticalAlign=middle;fontStyle=1;strokeWidth=3;fillColor=#FF8000;" vertex="1" parent="1">
          <mxGeometry x="560" y="721" width="120" height="59" as="geometry" />
        </mxCell>
        <mxCell id="LkIIAw-uAGg6XenNthky-179" value="" style="endArrow=classic;startArrow=classic;html=1;rounded=0;entryX=0;entryY=0.5;entryDx=0;entryDy=0;exitX=1;exitY=0.75;exitDx=0;exitDy=0;endSize=8;startSize=8;jumpSize=8;" edge="1" parent="1" source="LkIIAw-uAGg6XenNthky-175" target="LkIIAw-uAGg6XenNthky-178">
          <mxGeometry width="50" height="50" relative="1" as="geometry">
            <mxPoint x="125" y="606" as="sourcePoint" />
            <mxPoint x="125" y="494" as="targetPoint" />
          </mxGeometry>
        </mxCell>
        <mxCell id="LkIIAw-uAGg6XenNthky-182" value="SPI" style="edgeLabel;html=1;align=center;verticalAlign=middle;resizable=0;points=[];fontSize=14;fontStyle=1" vertex="1" connectable="0" parent="LkIIAw-uAGg6XenNthky-179">
          <mxGeometry x="-0.4317" y="-1" relative="1" as="geometry">
            <mxPoint x="18" y="-2" as="offset" />
          </mxGeometry>
        </mxCell>
      </root>
    </mxGraphModel>
  </diagram>
</mxfile>
